# xmcd CD database file
#
# Track frame offsets:
#	150
#	26848
#	50522
#	75550
#	103964
#	133179
#	154676
#	179835
#	200937
#	231003
#	258081
#	285825
#	321015
#
# Disc length: 4382 seconds
#
# Revision: 2
# Processed by: cddbd v1.5PL3 Copyright (c) Steve Scherf et al.
# Submitted via: CDex 1.50Beta7
#
DISCID=b8111c0d
DTITLE=globe - 8 Years〜Many Classic Moments〜
DYEAR=2002
DGENRE=JPop
TTITLE0=Feel Like dance
TTITLE1=DEPARTURES(Radio Edit)
TTITLE2=Is this love
TTITLE3=FACE
TTITLE4=FACES PLACES
TTITLE5=Love again
TTITLE6=wanna Be A Dreammaker
TTITLE7=still growin' up
TTITLE8=DON'T LOOK BACK(Album Edit)
TTITLE9=try this shoot
TTITLE10=Many Classic Moments
TTITLE11=winter comes around again(TK Mix)
TTITLE12=seize the light(DARK ANGEL Version)
EXTD=YEAR: 2002
EXTT0=
EXTT1=
EXTT2=
EXTT3=
EXTT4=
EXTT5=
EXTT6=
EXTT7=
EXTT8=
EXTT9=
EXTT10=
EXTT11=
EXTT12=
PLAYORDER=
